<svg width="533" height="117" viewBox="0 0 533 117" fill="none" xmlns="http://www.w3.org/2000/svg">
<path d="M521 58.5C515.084 24.1646 498.413 -23.9049 479.053 58.5C459.693 140.905 441.516 92.8354 434.848 58.5C428.932 24.1646 412.068 -23.9048 391.933 58.5C371.799 140.905 356.225 92.8353 350.955 58.5M182.531 59.1319C175.98 24.8731 159.691 -23.9049 140.301 58.5C120.91 140.905 102.705 92.8354 96.0256 58.5C90.1008 24.1646 73.2095 -23.9049 53.0433 58.5C32.8771 140.905 17.2785 92.8354 12 58.5M351.084 59.2845C345.687 24.3757 328.443 -23.9049 309.272 58.5C290.101 140.905 272.102 92.8354 265.498 58.5C259.641 24.1646 242.862 -23.9049 223.003 58.5C203.143 140.905 187.643 92.8354 182.424 58.5" stroke="#4ACDFF" stroke-width="24"/>
</svg>
