<svg width="510" height="115" viewBox="0 0 510 115" fill="none" xmlns="http://www.w3.org/2000/svg">
<rect width="263.787" height="114.602" rx="57.3011" transform="matrix(-1 0 0 1 363.023 0.302734)" fill="#FFD214"/>
<path d="M99.0464 57.5L0.000137329 0V115L99.0464 57.5Z" fill="#FFD214"/>
<path d="M410 57.5L509.046 115V0L410 57.5Z" fill="#FFD214"/>
<rect width="311" height="115" rx="57.5" transform="matrix(-1 0 0 1 410 0)" fill="#FFD214"/>
<mask id="mask0_0_705" style="mask-type:alpha" maskUnits="userSpaceOnUse" x="99" y="0" width="311" height="115">
<rect x="99" width="311" height="115" rx="57.5" fill="#F9616B"/>
</mask>
<g mask="url(#mask0_0_705)">
<path d="M485.084 57.4994C479.171 23.0245 462.505 -25.2404 443.151 57.4994C423.797 140.239 405.626 91.9743 398.96 57.4994C393.046 23.0245 376.187 -25.2404 356.059 57.4994C335.931 140.239 320.362 91.9743 315.094 57.4994M146.618 58.1339C140.069 23.7358 123.892 -25.2405 104.508 57.4994C85.1237 140.239 66.924 91.9743 60.2472 57.4994C54.3242 23.0245 37.4384 -25.2404 17.2787 57.4994C-2.88094 140.239 -18.4745 91.9743 -23.7514 57.4994M315.094 58.3454C308.08 23.4099 292.59 -25.2405 273.425 57.4994C254.26 140.239 236.266 91.9743 229.665 57.4994C223.809 23.0245 207.115 -25.2404 187.183 57.4994C167.252 140.239 151.835 91.9743 146.618 57.4994" stroke="#FF3E91" stroke-width="24"/>
</g>
</svg>
