<svg width="530" height="117" viewBox="0 0 530 117" fill="none" xmlns="http://www.w3.org/2000/svg">
<path d="M518 58.5C512.119 24.1646 495.546 -23.9049 476.301 58.5C457.055 140.905 438.985 92.8354 432.356 58.5C426.475 24.1646 409.71 -23.9048 389.694 58.5C369.678 140.905 354.196 92.8353 348.957 58.5M181.526 59.1319C175.014 24.8731 158.821 -23.9049 139.545 58.5C120.268 140.905 102.17 92.8354 95.5304 58.5C89.6404 24.1646 72.8487 -23.9049 52.8014 58.5C32.7541 140.905 17.2474 92.8354 12 58.5M349.085 59.2845C343.72 24.3757 326.578 -23.9049 307.52 58.5C288.462 140.905 270.569 92.8354 264.004 58.5C258.181 24.1646 241.502 -23.9049 221.759 58.5C202.017 140.905 186.608 92.8354 181.42 58.5" stroke="#FF3E91" stroke-width="24"/>
</svg>
