<svg width="115" height="115" viewBox="0 0 115 115" fill="none" xmlns="http://www.w3.org/2000/svg">
<mask id="mask0_0_633" style="mask-type:alpha" maskUnits="userSpaceOnUse" x="0" y="0" width="115" height="115">
<circle r="57.5" transform="matrix(-1 0 0 1 57.5 57.5)" fill="#C4C4C4"/>
</mask>
<g mask="url(#mask0_0_633)">
<path d="M58.0979 58.0979L82.1438 0.0458681L99.1649 17.0414L116.186 34.037L58.0979 58.0979Z" fill="#FFD214"/>
<path d="M58.0979 58.0979L0.0458589 34.0519L17.0414 17.0308L34.037 0.00971426L58.0979 58.0979Z" fill="#FFD214"/>
<path d="M58.0979 58.0979L34.0519 116.15L17.0308 99.1543L0.00970855 82.1588L58.0979 58.0979Z" fill="#FFD214"/>
<path d="M58.0979 58.0979L116.15 82.1438L99.1543 99.1649L82.1588 116.186L58.0979 58.0979Z" fill="#FFD214"/>
<path d="M58.0996 58.1018L34.0537 0.049835L58.1071 0.0317574L82.1605 0.0136798L58.0996 58.1018Z" fill="#3423E9"/>
<path d="M58.0996 58.1018L0.0476285 82.1478L0.0295562 58.0944L0.0114768 34.0409L58.0996 58.1018Z" fill="#3423E9"/>
<path d="M58.0996 58.1018L82.1456 116.154L58.0921 116.172L34.0387 116.19L58.0996 58.1018Z" fill="#3423E9"/>
<path d="M58.0996 58.1018L116.152 34.0559L116.17 58.1093L116.188 82.1627L58.0996 58.1018Z" fill="#3423E9"/>
</g>
</svg>
