<svg width="116" height="115" viewBox="0 0 116 115" fill="none" xmlns="http://www.w3.org/2000/svg">
<mask id="mask0_0_621" style="mask-type:alpha" maskUnits="userSpaceOnUse" x="0" y="0" width="116" height="115">
<circle r="57.5" transform="matrix(-1 0 0 1 57.9004 57.5)" fill="#C4C4C4"/>
</mask>
<g mask="url(#mask0_0_621)">
<path d="M58.0979 58.0979L82.1438 0.0458666L99.1649 17.0414L116.186 34.037L58.0979 58.0979Z" fill="#FFD214"/>
<path d="M58.0979 58.0979L0.0458503 34.0519L17.0414 17.0308L34.037 0.00971018L58.0979 58.0979Z" fill="#FFD214"/>
<path d="M58.0979 58.0979L34.0519 116.15L17.0308 99.1543L0.00968861 82.1588L58.0979 58.0979Z" fill="#FFD214"/>
<path d="M58.0979 58.0979L116.15 82.1438L99.1543 99.1649L82.1588 116.186L58.0979 58.0979Z" fill="#FFD214"/>
<path d="M58.1001 58.1038L34.0542 0.0517896L58.1076 0.0337129L82.161 0.0156354L58.1001 58.1038Z" fill="#FF3E91"/>
<path d="M58.1001 58.1038L0.0481112 82.1497L0.0300318 58.0963L0.0119517 34.0429L58.1001 58.1038Z" fill="#FF3E91"/>
<path d="M58.1001 58.1038L82.1461 116.156L58.0926 116.174L34.0392 116.192L58.1001 58.1038Z" fill="#FF3E91"/>
<path d="M58.1001 58.1038L116.152 34.0579L116.17 58.1113L116.188 82.1647L58.1001 58.1038Z" fill="#FF3E91"/>
</g>
</svg>
