<svg width="353" height="115" viewBox="0 0 353 115" fill="none" xmlns="http://www.w3.org/2000/svg">
<path d="M1.90735e-05 115.001L30.0161 68.1055L47.321 85.8015L1.90735e-05 115.001Z" fill="#FF3E91"/>
<rect width="352.901" height="115" rx="57.5" transform="matrix(-1 0 0 1 352.901 0)" fill="#4ACDFF"/>
<mask id="mask0_0_698" style="mask-type:alpha" maskUnits="userSpaceOnUse" x="0" y="0" width="353" height="115">
<rect width="352.901" height="115" rx="57.5" fill="#F9616B"/>
</mask>
<g mask="url(#mask0_0_698)">
<path d="M410.377 57.4994C404.463 23.0245 387.798 -25.2404 368.444 57.4994C349.09 140.239 330.919 91.9743 324.253 57.4994C318.339 23.0245 301.48 -25.2404 281.352 57.4994C261.224 140.239 245.655 91.9743 240.386 57.4994M71.9104 58.1339C65.362 23.7358 49.1849 -25.2405 29.8007 57.4994C10.4164 140.239 -7.78329 91.9743 -14.4601 57.4994C-20.3831 23.0245 -37.2689 -25.2404 -57.4286 57.4994C-77.5882 140.239 -93.1818 91.9743 -98.4586 57.4994M240.386 58.3454C233.373 23.4099 217.882 -25.2405 198.718 57.4994C179.553 140.239 161.559 91.9743 154.958 57.4994C149.102 23.0245 132.407 -25.2404 112.476 57.4994C92.5445 140.239 77.1275 91.9743 71.9104 57.4994" stroke="#FF3E91" stroke-width="27"/>
</g>
</svg>
