<svg width="115" height="115" viewBox="0 0 115 115" fill="none" xmlns="http://www.w3.org/2000/svg">
<mask id="mask0_0_625" style="mask-type:alpha" maskUnits="userSpaceOnUse" x="0" y="0" width="115" height="115">
<circle r="57.5" transform="matrix(-1 0 0 1 57.5 57.5)" fill="#C4C4C4"/>
</mask>
<g mask="url(#mask0_0_625)">
<path d="M57.0979 58.0979L81.1438 0.0458666L98.1649 17.0414L115.186 34.037L57.0979 58.0979Z" fill="#FF3E91"/>
<path d="M57.0979 58.0979L-0.95415 34.0519L16.0414 17.0308L33.037 0.00971018L57.0979 58.0979Z" fill="#FF3E91"/>
<path d="M57.0979 58.0979L33.0519 116.15L16.0308 99.1543L-0.990311 82.1588L57.0979 58.0979Z" fill="#FF3E91"/>
<path d="M57.0979 58.0979L115.15 82.1438L98.1543 99.1649L81.1588 116.186L57.0979 58.0979Z" fill="#FF3E91"/>
<path d="M57.1001 58.1038L33.0542 0.0517896L57.1076 0.0337129L81.161 0.0156354L57.1001 58.1038Z" fill="#4ACDFF"/>
<path d="M57.1001 58.1038L-0.951889 82.1497L-0.969968 58.0963L-0.988048 34.0429L57.1001 58.1038Z" fill="#4ACDFF"/>
<path d="M57.1001 58.1038L81.1461 116.156L57.0926 116.174L33.0392 116.192L57.1001 58.1038Z" fill="#4ACDFF"/>
<path d="M57.1001 58.1038L115.152 34.0579L115.17 58.1113L115.188 82.1647L57.1001 58.1038Z" fill="#4ACDFF"/>
</g>
</svg>
