<svg width="173" height="115" viewBox="0 0 173 115" fill="none" xmlns="http://www.w3.org/2000/svg">
<mask id="mask0_0_556" style="mask-type:alpha" maskUnits="userSpaceOnUse" x="0" y="0" width="173" height="115">
<rect width="173" height="115" rx="57.5" fill="#F9616B"/>
</mask>
<g mask="url(#mask0_0_556)">
<mask id="mask1_0_556" style="mask-type:alpha" maskUnits="userSpaceOnUse" x="-29" y="-46" width="232" height="193">
<ellipse cx="86.8679" cy="50.6719" rx="115.868" ry="95.9531" fill="#C4C4C4"/>
</mask>
<g mask="url(#mask1_0_556)">
<path d="M86.6882 58.1083L33.2506 -48.5225L-4.57563 -17.3048L-42.4019 13.9128L86.6882 58.1083Z" fill="#FFD214"/>
<path d="M86.6882 58.1083L215.698 13.9404L177.929 -17.3243L140.159 -48.5889L86.6882 58.1083Z" fill="#FFD214"/>
<path d="M86.6882 58.1083L140.126 164.739L177.952 133.521L215.778 102.304L86.6882 58.1083Z" fill="#FFD214"/>
<path d="M86.6882 58.1083L-42.3215 102.276L-4.55209 133.541L33.2174 164.805L86.6882 58.1083Z" fill="#FFD214"/>
<path d="M86.6873 58.1108L140.125 -48.52L86.6706 -48.5532L33.2164 -48.5864L86.6873 58.1108Z" fill="#FF3E91"/>
<path d="M86.6873 58.1108L215.697 102.279L215.737 58.0971L215.777 13.9154L86.6873 58.1108Z" fill="#FF3E91"/>
<path d="M86.6873 58.1108L33.2497 164.742L86.7039 164.775L140.158 164.808L86.6873 58.1108Z" fill="#FF3E91"/>
<path d="M86.6873 58.1108L-42.3225 13.9429L-42.3627 58.1246L-42.4029 102.306L86.6873 58.1108Z" fill="#FF3E91"/>
</g>
</g>
</svg>
