<svg width="746" height="115" viewBox="0 0 746 115" fill="none" xmlns="http://www.w3.org/2000/svg">
<rect x="100" y="4" width="546" height="107" rx="53.5" stroke="black" stroke-width="8"/>
<path d="M149.664 30.6835C155.096 30.6835 159.843 31.7722 163.905 33.9494C168.016 36.076 171.172 39.1646 173.374 43.2152C175.626 47.2152 176.751 51.8987 176.751 57.2658C176.751 62.6329 175.626 67.2911 173.374 71.2405C171.172 75.1899 168.016 78.2278 163.905 80.3544C159.843 82.4304 155.096 83.4684 149.664 83.4684H133V30.6835H149.664ZM149.664 76.4051C155.634 76.4051 160.21 74.7342 163.391 71.3924C166.572 68.0506 168.162 63.3418 168.162 57.2658C168.162 51.1392 166.572 46.3544 163.391 42.9114C160.21 39.4684 155.634 37.7468 149.664 37.7468H141.369V76.4051H149.664Z" fill="black"/>
<path d="M208.316 84C203.569 84 199.188 82.8608 195.176 80.5823C191.211 78.2532 188.055 75.038 185.706 70.9367C183.406 66.7848 182.256 62.1266 182.256 56.962C182.256 51.7975 183.406 47.1646 185.706 43.0633C188.055 38.962 191.211 35.7722 195.176 33.4937C199.188 31.1646 203.569 30 208.316 30C213.112 30 217.492 31.1646 221.456 33.4937C225.469 35.7722 228.625 38.962 230.925 43.0633C233.225 47.1646 234.375 51.7975 234.375 56.962C234.375 62.1266 233.225 66.7848 230.925 70.9367C228.625 75.038 225.469 78.2532 221.456 80.5823C217.492 82.8608 213.112 84 208.316 84ZM208.316 76.481C211.692 76.481 214.702 75.6962 217.345 74.1266C219.987 72.5063 222.043 70.2278 223.511 67.2911C225.028 64.3038 225.787 60.8608 225.787 56.962C225.787 53.0633 225.028 49.6456 223.511 46.7089C222.043 43.7722 219.987 41.519 217.345 39.9494C214.702 38.3797 211.692 37.5949 208.316 37.5949C204.939 37.5949 201.929 38.3797 199.286 39.9494C196.644 41.519 194.564 43.7722 193.047 46.7089C191.579 49.6456 190.844 53.0633 190.844 56.962C190.844 60.8608 191.579 64.3038 193.047 67.2911C194.564 70.2278 196.644 72.5063 199.286 74.1266C201.929 75.6962 204.939 76.481 208.316 76.481Z" fill="black"/>
<path d="M280.416 30.6835L263.532 64.3291V83.4684H255.163V64.3291L238.206 30.6835H247.529L259.347 56.5823L271.166 30.6835H280.416Z" fill="black"/>
<path d="M310.327 84C305.58 84 301.2 82.8608 297.187 80.5823C293.223 78.2532 290.066 75.038 287.717 70.9367C285.417 66.7848 284.267 62.1266 284.267 56.962C284.267 51.7975 285.417 47.1646 287.717 43.0633C290.066 38.962 293.223 35.7722 297.187 33.4937C301.2 31.1646 305.58 30 310.327 30C315.123 30 319.503 31.1646 323.467 33.4937C327.48 35.7722 330.637 38.962 332.937 43.0633C335.237 47.1646 336.387 51.7975 336.387 56.962C336.387 62.1266 335.237 66.7848 332.937 70.9367C330.637 75.038 327.48 78.2532 323.467 80.5823C319.503 82.8608 315.123 84 310.327 84ZM310.327 76.481C313.704 76.481 316.714 75.6962 319.356 74.1266C321.999 72.5063 324.054 70.2278 325.523 67.2911C327.04 64.3038 327.798 60.8608 327.798 56.962C327.798 53.0633 327.04 49.6456 325.523 46.7089C324.054 43.7722 321.999 41.519 319.356 39.9494C316.714 38.3797 313.704 37.5949 310.327 37.5949C306.95 37.5949 303.941 38.3797 301.298 39.9494C298.655 41.519 296.575 43.7722 295.058 46.7089C293.59 49.6456 292.856 53.0633 292.856 56.962C292.856 60.8608 293.59 64.3038 295.058 67.2911C296.575 70.2278 298.655 72.5063 301.298 74.1266C303.941 75.6962 306.95 76.481 310.327 76.481Z" fill="black"/>
<path d="M352.917 30.6835V64.3291C352.917 68.3291 353.92 71.3418 355.927 73.3671C357.982 75.3924 360.821 76.4051 364.442 76.4051C368.112 76.4051 370.951 75.3924 372.957 73.3671C375.013 71.3418 376.04 68.3291 376.04 64.3291V30.6835H384.409V64.1772C384.409 68.481 383.504 72.1266 381.693 75.1139C379.882 78.1013 377.46 80.3291 374.426 81.7975C371.391 83.2658 368.039 84 364.369 84C360.698 84 357.346 83.2658 354.312 81.7975C351.326 80.3291 348.953 78.1013 347.191 75.1139C345.429 72.1266 344.548 68.481 344.548 64.1772V30.6835H352.917Z" fill="black"/>
<path d="M412.115 84C408.69 84 405.607 83.3924 402.866 82.1772C400.125 80.9114 397.972 79.1392 396.406 76.8608C394.84 74.5823 394.057 71.924 394.057 68.8861H403.013C403.209 71.1646 404.065 73.038 405.582 74.5063C407.148 75.9747 409.326 76.7089 412.115 76.7089C415.003 76.7089 417.254 76 418.869 74.5823C420.484 73.1139 421.291 71.2405 421.291 68.962C421.291 67.1899 420.778 65.7468 419.75 64.6329C418.771 63.519 417.523 62.6582 416.006 62.0506C414.538 61.443 412.482 60.7848 409.84 60.0759C406.512 59.1646 403.796 58.2532 401.691 57.3418C399.636 56.3797 397.874 54.9114 396.406 52.9367C394.938 50.962 394.204 48.3291 394.204 45.038C394.204 42 394.938 39.3418 396.406 37.0633C397.874 34.7848 399.93 33.038 402.572 31.8228C405.215 30.6076 408.274 30 411.748 30C416.691 30 420.729 31.2911 423.861 33.8734C427.042 36.4051 428.804 39.8987 429.146 44.3544H419.897C419.75 42.4304 418.869 40.7848 417.254 39.4177C415.639 38.0506 413.51 37.3671 410.867 37.3671C408.469 37.3671 406.512 38 404.995 39.2658C403.478 40.5316 402.719 42.3544 402.719 44.7342C402.719 46.3544 403.184 47.6962 404.114 48.7595C405.093 49.7722 406.316 50.5823 407.784 51.1899C409.253 51.7975 411.259 52.4557 413.804 53.1646C417.181 54.1266 419.921 55.0886 422.026 56.0506C424.179 57.0127 425.99 58.5063 427.458 60.5316C428.975 62.5063 429.733 65.1646 429.733 68.5063C429.733 71.1899 429.024 73.7215 427.605 76.1013C426.234 78.481 424.203 80.4051 421.512 81.8734C418.869 83.2911 415.737 84 412.115 84Z" fill="black"/>
<path d="M475.284 46.4051C475.284 49.0886 474.673 51.6203 473.449 54C472.226 56.3797 470.268 58.3291 467.576 59.8481C464.885 61.3165 461.435 62.0506 457.226 62.0506H447.976V83.4684H439.608V30.6835H457.226C461.141 30.6835 464.444 31.3924 467.136 32.8101C469.877 34.1772 471.908 36.0506 473.229 38.4304C474.599 40.8101 475.284 43.4684 475.284 46.4051ZM457.226 54.9873C460.407 54.9873 462.78 54.2532 464.346 52.7848C465.912 51.2658 466.695 49.1392 466.695 46.4051C466.695 40.6329 463.539 37.7468 457.226 37.7468H447.976V54.9873H457.226Z" fill="black"/>
<path d="M491.634 37.6709V53.1646H509.252V60.2278H491.634V76.4051H511.454V83.4684H483.266V30.6076H511.454V37.6709H491.634Z" fill="black"/>
<path d="M552.52 72.6835H531.158L527.488 83.4684H518.752L537.031 30.6076H546.721L564.999 83.4684H556.19L552.52 72.6835ZM550.171 65.6203L541.876 41.0886L533.507 65.6203H550.171Z" fill="black"/>
<path d="M601.062 83.4684L581.315 59.8481V83.4684H572.947V30.6835H581.315V54.7595L601.136 30.6835H611.633L589.464 57.1139L612 83.4684H601.062Z" fill="black"/>
<path d="M731 88.5308L679.192 57.5L731 26.4692V88.5308Z" fill="black" stroke="black" stroke-width="30"/>
<path d="M15 88.5308L66.808 57.5L15 26.4692V88.5308Z" fill="black" stroke="black" stroke-width="30"/>
</svg>
