<svg width="115" height="115" viewBox="0 0 115 115" fill="none" xmlns="http://www.w3.org/2000/svg">
<mask id="mask0_0_617" style="mask-type:alpha" maskUnits="userSpaceOnUse" x="0" y="0" width="115" height="115">
<circle r="57.5" transform="matrix(-1 0 0 1 57.5 57.5)" fill="#C4C4C4"/>
</mask>
<g mask="url(#mask0_0_617)">
<path d="M58.0979 58.0979L82.1438 0.0458666L99.1649 17.0414L116.186 34.037L58.0979 58.0979Z" fill="#D47B2D"/>
<path d="M58.0979 58.0979L0.0458503 34.0519L17.0414 17.0308L34.037 0.00971018L58.0979 58.0979Z" fill="#D47B2D"/>
<path d="M58.0979 58.0979L34.0519 116.15L17.0308 99.1543L0.00968861 82.1588L58.0979 58.0979Z" fill="#D47B2D"/>
<path d="M58.0979 58.0979L116.15 82.1438L99.1543 99.1649L82.1588 116.186L58.0979 58.0979Z" fill="#D47B2D"/>
<path d="M58.0987 58.0979L34.0527 0.0459302L58.1061 0.0278535L82.1596 0.00977599L58.0987 58.0979Z" fill="#FFD214"/>
<path d="M58.0987 58.0979L0.0466464 82.1439L0.028567 58.0905L0.0104868 34.037L58.0987 58.0979Z" fill="#FFD214"/>
<path d="M58.0987 58.0979L82.1446 116.15L58.0912 116.168L34.0377 116.186L58.0987 58.0979Z" fill="#FFD214"/>
<path d="M58.0987 58.0979L116.151 34.052L116.169 58.1054L116.187 82.1589L58.0987 58.0979Z" fill="#FFD214"/>
</g>
</svg>
