<svg width="277" height="115" viewBox="0 0 277 115" fill="none" xmlns="http://www.w3.org/2000/svg">
<path d="M0.000263214 114.636L30.0164 67.7402L47.3213 85.4363L0.000263214 114.636Z" fill="#FF3E91"/>
<mask id="mask0_0_690" style="mask-type:alpha" maskUnits="userSpaceOnUse" x="0" y="0" width="277" height="115">
<rect x="0.000976562" width="276.473" height="115" rx="57.5" fill="#F9616B"/>
</mask>
<g mask="url(#mask0_0_690)">
<mask id="mask1_0_690" style="mask-type:alpha" maskUnits="userSpaceOnUse" x="0" y="-32" width="277" height="179">
<ellipse cx="138.237" cy="57.501" rx="138.236" ry="89.0069" fill="#C4C4C4"/>
</mask>
<g mask="url(#mask1_0_690)">
<path d="M138.006 58.1094L69.4456 -48.5214L20.9143 -17.3037L-27.617 13.9139L138.006 58.1094Z" fill="#FF3E91"/>
<path d="M138.006 58.1094L303.527 13.9415L255.068 -17.3232L206.61 -48.5878L138.006 58.1094Z" fill="#FF3E91"/>
<path d="M138.006 58.1094L206.567 164.74L255.098 133.522L303.63 102.305L138.006 58.1094Z" fill="#FF3E91"/>
<path d="M138.006 58.1094L-27.514 102.277L20.9445 133.542L69.4029 164.807L138.006 58.1094Z" fill="#FF3E91"/>
<path d="M138.005 58.1112L206.566 -48.5196L137.984 -48.5528L69.4017 -48.586L138.005 58.1112Z" fill="#FFD214"/>
<path d="M138.005 58.1112L303.526 102.279L303.577 58.0974L303.629 13.9158L138.005 58.1112Z" fill="#FFD214"/>
<path d="M138.005 58.1112L69.4444 164.742L138.027 164.775L206.609 164.808L138.005 58.1112Z" fill="#FFD214"/>
<path d="M138.005 58.1112L-27.5151 13.9433L-27.5666 58.125L-27.6182 102.307L138.005 58.1112Z" fill="#FFD214"/>
</g>
</g>
</svg>
