<svg width="199" height="115" viewBox="0 0 199 115" fill="none" xmlns="http://www.w3.org/2000/svg">
<rect width="198.493" height="115" rx="57.5" transform="matrix(-1 0 0 1 198.493 0)" fill="black"/>
<rect width="22.0548" height="30.7192" rx="11.0274" transform="matrix(-1 0 0 1 159.11 11.8151)" fill="white"/>
<rect width="21.2671" height="30.7192" rx="10.6336" transform="matrix(-1 0 0 1 134.692 11.8151)" fill="white"/>
<rect width="22.8425" height="30.7192" rx="11.4212" transform="matrix(-1 0 0 1 111.062 11.8151)" fill="white"/>
<rect width="22.0548" height="31.5068" rx="11.0274" transform="matrix(-1 0 0 1 85.8561 11.0282)" fill="white"/>
<ellipse rx="66.1644" ry="27.5685" transform="matrix(-1 0 0 1 99.2465 83.4928)" fill="#FF7CB4"/>
<rect width="22.0548" height="30.7192" rx="11.0274" transform="matrix(-1 0 0 1 135.479 81.919)" fill="white"/>
<rect width="23.7023" height="32.4809" rx="11.8511" transform="matrix(-1 0 0 1 111.489 81.6412)" fill="white"/>
<rect width="22.0548" height="31.5068" rx="11.0274" transform="matrix(-1 0 0 1 85.8561 81.919)" fill="white"/>
<rect width="22.0548" height="30.7192" rx="11.0274" transform="matrix(-1 0 0 1 61.4384 11.8151)" fill="white"/>
<rect x="-9" y="9" width="180.493" height="97" rx="48.5" transform="matrix(-1 0 0 1 180.493 0)" stroke="#FF3E91" stroke-width="18"/>
</svg>
