<svg width="319" height="115" viewBox="0 0 319 115" fill="none" xmlns="http://www.w3.org/2000/svg">
<path d="M317.958 115L288.085 68.1055L270.863 85.8012L317.958 115Z" fill="#FFD214"/>
<rect width="318.216" height="114.999" rx="57.4995" transform="matrix(-1 0 0 1 318.217 0)" fill="#4ACDFF"/>
<mask id="mask0_0_598" style="mask-type:alpha" maskUnits="userSpaceOnUse" x="0" y="0" width="319" height="115">
<rect width="318.216" height="114.999" rx="57.4995" transform="matrix(-1 0 0 1 318.217 0)" fill="#F6DE00"/>
</mask>
<g mask="url(#mask0_0_598)">
<path d="M369.243 170.924C383.475 154.904 400.085 128.617 352.67 151.629C305.254 174.64 321.27 147.661 335.205 131.295C349.437 115.276 365.971 88.9 318.249 111.555C270.528 134.21 288.173 108.703 301.966 92.7097" stroke="#FFD214" stroke-width="23"/>
<path d="M235.289 15.4786C249.237 -0.798738 266.39 -27.0349 218.974 -4.02347C171.559 18.9879 187.575 -7.99118 201.509 -24.3572C215.741 -40.3768 232.275 -66.7523 184.554 -44.0972C136.833 -21.442 153.876 -47.2238 168.364 -62.9466" stroke="#FFD214" stroke-width="23"/>
<path d="M301.798 92.9083C315.818 76.2057 332.989 50.4992 285.651 73.6001C238.312 96.701 254.4 69.8059 268.361 53.4708C282.617 37.4785 299.217 11.1809 251.576 33.9291C203.935 56.6774 221.04 30.9675 235.548 15.2691" stroke="#FFD214" stroke-width="23"/>
<path d="M250.158 175.59C264.39 159.57 281 133.283 233.585 156.295C186.169 179.306 202.185 152.327 216.12 135.961C230.352 119.942 246.886 93.566 199.164 116.221C151.443 138.876 168.487 113.094 182.974 97.3717" stroke="#FFD214" stroke-width="23"/>
<path d="M116.207 20.1485C130.156 3.87118 147.308 -22.3649 99.8929 0.646445C52.4774 23.6578 68.493 -3.32127 82.4277 -19.6872C96.6599 -35.7069 113.194 -62.0824 65.4724 -39.4273C17.751 -16.7721 34.7949 -42.5539 49.282 -58.2767" stroke="#FFD214" stroke-width="23"/>
<path d="M182.579 97.8004C196.598 81.0978 213.904 55.1709 166.565 78.2719C119.227 101.373 135.314 74.4777 149.275 58.1425C163.531 42.1501 180.132 15.8525 132.491 38.6008C84.8491 61.3491 101.955 35.6392 116.463 19.9407" stroke="#FFD214" stroke-width="23"/>
<path d="M131.136 178.803C145.368 162.783 161.979 136.496 114.563 159.508C67.1477 182.519 83.1632 155.54 97.0979 139.174C111.33 123.154 127.864 96.7789 80.1426 119.434C32.4213 142.089 49.4651 116.307 63.9523 100.585" stroke="#FFD214" stroke-width="23"/>
<path d="M-2.81602 23.3555C11.1324 7.07821 28.2849 -19.1579 -19.1305 3.85347C-66.5459 26.8648 -50.5304 -0.114243 -36.5957 -16.4802C-22.3636 -32.4998 -5.82961 -58.8753 -53.551 -36.2202C-101.272 -13.5651 -84.2285 -39.3468 -69.7414 -55.0696" stroke="#FFD214" stroke-width="23"/>
<path d="M63.5468 101.014C77.5664 84.3118 94.8832 58.3809 47.5446 81.4818C0.206043 104.583 16.2938 77.6876 30.255 61.3524C44.5106 45.3601 61.1115 19.0625 13.4701 41.8108C-34.1714 64.5591 -17.0656 38.8492 -2.55757 23.1508" stroke="#FFD214" stroke-width="23"/>
</g>
</svg>
